<svg width="28" height="28" viewBox="0 0 28 28" fill="none" xmlns="http://www.w3.org/2000/svg">
<path fill-rule="evenodd" clip-rule="evenodd" d="M11.3078 6.99998C11.3078 6.82776 11.3949 6.46198 11.7488 6.1343C12.0906 5.81782 12.7521 5.47434 14.0001 5.47434C15.2481 5.47434 15.9095 5.81782 16.2513 6.1343C16.6052 6.46198 16.6924 6.82776 16.6924 6.99998H18.3078C18.3078 6.39442 18.0449 5.59353 17.3488 4.94899C16.6406 4.29325 15.5521 3.85895 14.0001 3.85895C12.4481 3.85895 11.3595 4.29325 10.6513 4.94899C9.95522 5.59353 9.69238 6.39442 9.69238 6.99998H11.3078ZM11.3078 7V8.8202H16.6924V7H18.3078V8.8202H21.0821C21.5282 8.8202 21.8898 9.18182 21.8898 9.62789V20.661C21.8898 21.2954 21.6357 21.9024 21.1855 22.3489C20.7356 22.7953 20.1267 23.0449 19.4931 23.0449H8.3703C7.73677 23.0449 7.12787 22.7953 6.67792 22.3489C6.22774 21.9024 5.97363 21.2954 5.97363 20.661V9.62789C5.97363 9.18182 6.33525 8.8202 6.78133 8.8202H9.69238V7H11.3078ZM9.69238 12.8333V10.4356H7.58902V20.661C7.58902 20.8627 7.66973 21.0575 7.81553 21.2021C7.96156 21.3469 8.16099 21.4295 8.3703 21.4295H19.4931C19.7024 21.4295 19.9019 21.3469 20.0479 21.2021C20.1937 21.0575 20.2744 20.8627 20.2744 20.661V10.4356H18.3078V12.8333H16.6924V10.4356H11.3078V12.8333H9.69238Z" fill="#121212"/>
</svg>
