<svg width="18" height="18" viewBox="0 0 18 18" fill="none" xmlns="http://www.w3.org/2000/svg">
<path fill-rule="evenodd" clip-rule="evenodd" d="M3.28825 4.82653C3.41318 4.5861 3.6645 4.42188 3.95418 4.42188H14.4542C14.7439 4.42188 14.9952 4.5861 15.1201 4.82653L9.20418 8.77049L3.28825 4.82653ZM1.70423 5.1575C1.70408 5.16571 1.70406 5.17393 1.70418 5.18213V12.6719C1.70418 13.9145 2.71154 14.9219 3.95418 14.9219H14.4542C15.6968 14.9219 16.7042 13.9145 16.7042 12.6719V5.18215M15.2042 6.57326V12.6719C15.2042 13.0861 14.8684 13.4219 14.4542 13.4219H3.95418C3.53997 13.4219 3.20418 13.0861 3.20418 12.6719V6.57326L8.78816 10.2959C9.04008 10.4639 9.36828 10.4639 9.62021 10.2959L15.2042 6.57326ZM16.7041 5.15748C16.6964 3.92146 15.692 2.92188 14.4542 2.92188H3.95418C2.71634 2.92188 1.71196 3.92147 1.70423 5.1575" fill="#121212"/>
</svg>
