<svg width="18" height="18" viewBox="0 0 18 18" fill="none" xmlns="http://www.w3.org/2000/svg">
<path fill-rule="evenodd" clip-rule="evenodd" d="M6.24316 3.71094C5.00052 3.71094 3.99316 4.7183 3.99316 5.96094V11.9609C3.99316 13.2036 5.00052 14.2109 6.24316 14.2109H12.2432C13.4858 14.2109 14.4932 13.2036 14.4932 11.9609V5.96094C14.4932 4.7183 13.4858 3.71094 12.2432 3.71094H6.24316ZM2.49316 5.96094C2.49316 3.88987 4.1721 2.21094 6.24316 2.21094H12.2432C14.3142 2.21094 15.9932 3.88987 15.9932 5.96094V11.9609C15.9932 14.032 14.3142 15.7109 12.2432 15.7109H6.24316C4.1721 15.7109 2.49316 14.032 2.49316 11.9609V5.96094ZM9.24317 7.46094C8.41474 7.46094 7.74317 8.13251 7.74317 8.96094C7.74317 9.78937 8.41474 10.4609 9.24317 10.4609C10.0716 10.4609 10.7432 9.78937 10.7432 8.96094C10.7432 8.13251 10.0716 7.46094 9.24317 7.46094ZM6.24316 8.96094C6.24316 7.30408 7.58631 5.96094 9.24317 5.96094C10.9 5.96094 12.2432 7.30408 12.2432 8.96094C12.2432 10.6178 10.9 11.9609 9.24317 11.9609C7.58631 11.9609 6.24316 10.6178 6.24316 8.96094ZM13.3682 5.58594C13.3682 5.17172 13.0324 4.83594 12.6182 4.83594C12.204 4.83594 11.8682 5.17172 11.8682 5.58594V5.58669C11.8682 6.0009 12.204 6.33669 12.6182 6.33669C13.0324 6.33669 13.3682 6.0009 13.3682 5.58669V5.58594Z" fill="#121212"/>
</svg>
