<svg width="33" height="33" viewBox="0 0 33 33" fill="none" xmlns="http://www.w3.org/2000/svg">
<path fill-rule="evenodd" clip-rule="evenodd" d="M13.484 6.52309C14.3436 5.66355 15.5094 5.18066 16.7249 5.18066C17.9405 5.18066 19.1063 5.66355 19.9658 6.52309C20.8254 7.38263 21.3083 8.54842 21.3083 9.764V14.3473H12.1416V9.764C12.1416 8.54842 12.6245 7.38263 13.484 6.52309ZM10.6416 14.3473V9.764C10.6416 8.1506 11.2825 6.60328 12.4234 5.46243C13.5642 4.32158 15.1115 3.68066 16.7249 3.68066C18.3383 3.68066 19.8857 4.32158 21.0265 5.46243C22.1673 6.60328 22.8083 8.1506 22.8083 9.764V14.3473H23.3916C25.2786 14.3473 26.8083 15.877 26.8083 17.764V25.764C26.8083 27.651 25.2786 29.1807 23.3916 29.1807H10.0583C8.1713 29.1807 6.6416 27.651 6.6416 25.764V17.764C6.6416 15.877 8.1713 14.3473 10.0583 14.3473H10.6416ZM22.0583 15.8473H23.3916C24.4501 15.8473 25.3083 16.7055 25.3083 17.764V25.764C25.3083 26.8225 24.4501 27.6807 23.3916 27.6807H10.0583C8.99972 27.6807 8.1416 26.8225 8.1416 25.764V17.764C8.1416 16.7055 8.99972 15.8473 10.0583 15.8473H11.3916H22.0583ZM16.7249 21.1807C16.4028 21.1807 16.1416 21.4418 16.1416 21.764C16.1416 22.0862 16.4028 22.3473 16.7249 22.3473C17.0471 22.3473 17.3083 22.0862 17.3083 21.764C17.3083 21.4418 17.0471 21.1807 16.7249 21.1807ZM14.6416 21.764C14.6416 20.6134 15.5743 19.6807 16.7249 19.6807C17.8755 19.6807 18.8083 20.6134 18.8083 21.764C18.8083 22.9146 17.8755 23.8473 16.7249 23.8473C15.5743 23.8473 14.6416 22.9146 14.6416 21.764Z" fill="#121212"/>
</svg>
