<svg width="33" height="33" viewBox="0 0 33 33" fill="none" xmlns="http://www.w3.org/2000/svg">
<path d="M25.8335 12.3613H12.5002C11.0274 12.3613 9.8335 13.5552 9.8335 15.028V23.028C9.8335 24.5008 11.0274 25.6947 12.5002 25.6947H25.8335C27.3063 25.6947 28.5002 24.5008 28.5002 23.028V15.028C28.5002 13.5552 27.3063 12.3613 25.8335 12.3613Z" stroke="#121212" stroke-width="1.5" stroke-linecap="round" stroke-linejoin="round"/>
<path d="M19.1667 21.6947C20.6394 21.6947 21.8333 20.5008 21.8333 19.028C21.8333 17.5552 20.6394 16.3613 19.1667 16.3613C17.6939 16.3613 16.5 17.5552 16.5 19.028C16.5 20.5008 17.6939 21.6947 19.1667 21.6947Z" stroke="#121212" stroke-width="1.5" stroke-linecap="round" stroke-linejoin="round"/>
<path d="M23.1667 12.3612V9.6945C23.1667 8.98725 22.8857 8.30898 22.3856 7.80888C21.8855 7.30878 21.2072 7.02783 20.5 7.02783H7.16667C6.45942 7.02783 5.78115 7.30878 5.28105 7.80888C4.78095 8.30898 4.5 8.98725 4.5 9.6945V17.6945C4.5 18.4017 4.78095 19.08 5.28105 19.5801C5.78115 20.0802 6.45942 20.3612 7.16667 20.3612H9.83333" stroke="#121212" stroke-width="1.5" stroke-linecap="round" stroke-linejoin="round"/>
</svg>
