<svg width="28" height="28" viewBox="0 0 28 28" fill="none" xmlns="http://www.w3.org/2000/svg">
<path fill-rule="evenodd" clip-rule="evenodd" d="M5.72671 11.9146C5.72671 8.56374 8.44308 5.84737 11.7939 5.84737C15.1447 5.84737 17.8611 8.56374 17.8611 11.9146C17.8611 15.2654 15.1447 17.9817 11.7939 17.9817C8.44308 17.9817 5.72671 15.2654 5.72671 11.9146ZM11.7939 4.23199C7.55093 4.23199 4.11133 7.67159 4.11133 11.9146C4.11133 16.1575 7.55093 19.5971 11.7939 19.5971C13.6244 19.5971 15.3053 18.957 16.6251 17.8883L22.0258 23.289C22.3412 23.6044 22.8526 23.6044 23.1681 23.289C23.4835 22.9736 23.4835 22.4622 23.1681 22.1467L17.7674 16.7461C18.8362 15.4262 19.4765 13.7452 19.4765 11.9146C19.4765 7.67159 16.0369 4.23199 11.7939 4.23199Z" fill="#121212"/>
</svg>
