<svg width="33" height="33" viewBox="0 0 33 33" fill="none" xmlns="http://www.w3.org/2000/svg">
<path fill-rule="evenodd" clip-rule="evenodd" d="M3.1665 6.4165C2.75229 6.4165 2.4165 6.75229 2.4165 7.1665C2.4165 7.58072 2.75229 7.9165 3.1665 7.9165H17.0832V8.49984V15.1665V22.4165H13.1673C12.8254 20.8903 11.4625 19.7498 9.83317 19.7498C8.20385 19.7498 6.84091 20.8903 6.49908 22.4165H5.24984V17.8332C5.24984 17.419 4.91405 17.0832 4.49984 17.0832C4.08562 17.0832 3.74984 17.419 3.74984 17.8332V23.1665C3.74984 23.5807 4.08562 23.9165 4.49984 23.9165H6.49908C6.84091 25.4427 8.20385 26.5832 9.83317 26.5832C11.4625 26.5832 12.8254 25.4427 13.1673 23.9165H17.8332H19.8324C20.1742 25.4427 21.5372 26.5832 23.1665 26.5832C24.7958 26.5832 26.1588 25.4427 26.5006 23.9165H28.4998C28.914 23.9165 29.2498 23.5807 29.2498 23.1665V15.1788C29.2511 15.1079 29.2423 15.0365 29.2229 14.9666C29.2035 14.8964 29.1742 14.8304 29.1366 14.7701L25.143 8.11397C25.0074 7.88806 24.7633 7.74984 24.4998 7.74984H18.5832V7.1665C18.5832 6.75229 18.2474 6.4165 17.8332 6.4165H3.1665ZM26.5006 22.4165H27.7498V15.9165H18.5832V22.4165H19.8324C20.1742 20.8903 21.5372 19.7498 23.1665 19.7498C24.7958 19.7498 26.1588 20.8903 26.5006 22.4165ZM7.9165 23.1672C7.9169 24.2254 8.77487 25.0832 9.83317 25.0832C10.8917 25.0832 11.7498 24.225 11.7498 23.1665C11.7498 22.108 10.8917 21.2498 9.83317 21.2498C8.77462 21.2498 7.9165 22.108 7.9165 23.1665C7.9165 23.1667 7.9165 23.167 7.9165 23.1672ZM18.5832 14.4165V9.24984H24.0752L27.1752 14.4165H18.5832ZM23.1665 21.2498C22.108 21.2498 21.2498 22.108 21.2498 23.1665C21.2498 24.225 22.108 25.0832 23.1665 25.0832C24.225 25.0832 25.0832 24.225 25.0832 23.1665C25.0832 22.108 24.225 21.2498 23.1665 21.2498Z" fill="#121212"/>
</svg>
