<svg width="28" height="28" viewBox="0 0 28 28" fill="none" xmlns="http://www.w3.org/2000/svg">
<path fill-rule="evenodd" clip-rule="evenodd" d="M9.65584 9.33333C9.65584 7.20208 11.3836 5.47436 13.5148 5.47436C15.6461 5.47436 17.3738 7.20208 17.3738 9.33333C17.3738 11.4646 15.6461 13.1923 13.5148 13.1923C11.3836 13.1923 9.65584 11.4646 9.65584 9.33333ZM13.5148 3.85897C10.4914 3.85897 8.04045 6.30993 8.04045 9.33333C8.04045 12.3567 10.4914 14.8077 13.5148 14.8077C16.5382 14.8077 18.9892 12.3567 18.9892 9.33333C18.9892 6.30993 16.5382 3.85897 13.5148 3.85897ZM8.45268 19.3167C9.17638 18.593 10.1579 18.1864 11.1814 18.1864H15.8481C16.8715 18.1864 17.8531 18.593 18.5768 19.3167C19.3005 20.0404 19.707 21.0219 19.707 22.0454V24.3787C19.707 24.8248 20.0686 25.1864 20.5147 25.1864C20.9608 25.1864 21.3224 24.8248 21.3224 24.3787V22.0454C21.3224 20.5935 20.7457 19.2011 19.719 18.1744C18.6924 17.1478 17.2999 16.571 15.8481 16.571H11.1814C9.7295 16.571 8.33707 17.1478 7.31043 18.1744C6.28379 19.2011 5.70703 20.5935 5.70703 22.0454V24.3787C5.70703 24.8248 6.06865 25.1864 6.51472 25.1864C6.9608 25.1864 7.32242 24.8248 7.32242 24.3787V22.0454C7.32242 21.0219 7.72899 20.0404 8.45268 19.3167Z" fill="#121212"/>
</svg>
